<?xml version="1.0" standalone="no"?>
<!DOCTYPE svg PUBLIC "-//W3C//DTD SVG 20010904//EN"
 "http://www.w3.org/TR/2001/REC-SVG-20010904/DTD/svg10.dtd">
<svg version="1.0" xmlns="http://www.w3.org/2000/svg"
 width="332.000000pt" height="159.000000pt" viewBox="0 0 332.000000 159.000000"
 preserveAspectRatio="xMidYMid meet">
<metadata>
Created by potrace 1.16, written by Peter Selinger 2001-2019
</metadata>
<g transform="translate(0.000000,159.000000) scale(0.100000,-0.100000)"
fill="#000000" stroke="none">
<path d="M550 820 l0 -510 510 0 510 0 0 510 0 510 -510 0 -510 0 0 -510z
m655 323 c70 -36 137 -104 168 -171 18 -38 22 -66 22 -142 0 -87 -3 -100 -32
-155 -36 -71 -105 -138 -171 -168 -38 -18 -66 -22 -142 -22 -85 0 -101 3 -153
29 -68 35 -140 108 -170 174 -18 38 -22 65 -22 142 0 87 3 100 32 155 69 134
178 198 328 192 66 -3 91 -9 140 -34z"/>
<path d="M1800 800 l0 -210 175 0 c168 0 175 1 175 20 0 19 -7 20 -155 20
l-155 0 0 190 c0 183 -1 190 -20 190 -19 0 -20 -7 -20 -210z"/>
<path d="M2230 799 l0 -210 170 3 c158 3 171 4 191 25 14 14 23 38 26 70 4 40
0 54 -21 86 -14 20 -21 37 -16 37 15 0 40 56 40 90 0 42 -23 84 -55 98 -16 8
-82 12 -180 12 l-155 0 0 -211z m330 151 c12 -12 20 -33 20 -55 0 -22 -8 -43
-20 -55 -18 -18 -33 -20 -155 -20 l-135 0 0 75 0 75 135 0 c122 0 137 -2 155
-20z m4 -192 c9 -12 16 -36 16 -53 0 -17 -7 -41 -16 -53 -14 -21 -22 -22 -155
-22 l-139 0 0 75 0 75 139 0 c133 0 141 -1 155 -22z"/>
</g>
</svg>
